<svg version="1.1" baseProfile="full" viewBox="0 0 100 100" xmlns="http://www.w3.org/2000/svg">
    <path d="M 5 15
             a 10 10 0 0 1 20 0
             a 10 10 0 0 1 -20 0
             M 1 40
             a 14 14 0 0 1 28 0

             M 35 19
             l 30 0
             l -8 2
             l 0 -4
             l 8 2

             M 65 31
             l -30 0
             l 8 -2
             l 0 4
             l -8 -2

             M 75 15
             a 10 10 0 0 1 20 0
             a 10 10 0 0 1 -20 0
             M 71 40
             a 14 14 0 0 1 28 0

             z" stroke="black" fill="black" />
</svg>
